<svg width="14" height="14" viewBox="0 0 14 14" fill="none" xmlns="http://www.w3.org/2000/svg">
<g clip-path="url(#clip0_140_1701)">
<path d="M9.62508 7.58347C11.1282 7.58347 12.3899 6.54978 12.7381 5.15448C12.4885 5.21679 12.2273 5.24988 11.9584 5.24988C10.1865 5.24988 8.75008 3.81346 8.75008 2.04154C8.75008 1.77276 8.78313 1.5117 8.84539 1.26221C7.45027 1.61052 6.41675 2.87213 6.41675 4.37514C6.41675 4.90756 6.54644 5.40969 6.77595 5.85166M2.91675 4.08346V1.75012M1.75008 2.91679H4.08341M3.50008 12.8335C2.21142 12.8335 1.16675 11.7888 1.16675 10.5001C1.16675 9.34637 2.00413 8.3882 3.10428 8.20022C3.57519 6.82339 4.88036 5.83346 6.41675 5.83346C7.75153 5.83346 8.9118 6.58064 9.50211 7.67957C9.72684 7.61694 9.96372 7.58346 10.2084 7.58346C11.6582 7.58346 12.8334 8.75871 12.8334 10.2085C12.8334 11.6582 11.6582 12.8335 10.2084 12.8335C7.9723 12.8335 5.73619 12.8335 3.50008 12.8335Z" stroke="white" stroke-linecap="round" stroke-linejoin="round"/>
</g>
<defs>
<clipPath id="clip0_140_1701">
<rect width="14" height="14" fill="white"/>
</clipPath>
</defs>
</svg>
