<svg width="16" height="16" viewBox="0 0 16 16" fill="none" xmlns="http://www.w3.org/2000/svg">
<path d="M4 11.3339C4 11.5681 4 11.6852 4.01045 11.787C4.09716 12.6322 4.7084 13.3303 5.53471 13.528C5.63423 13.5518 5.75034 13.5673 5.98246 13.5982L10.3771 14.1842C11.628 14.3509 12.2535 14.4343 12.739 14.2413C13.1652 14.0718 13.5202 13.761 13.7445 13.361C14 12.9053 14 12.2743 14 11.0122V4.98886C14 3.72684 14 3.09582 13.7445 2.64014C13.5202 2.24006 13.1652 1.92924 12.739 1.75977C12.2535 1.56674 11.628 1.65014 10.3771 1.81693L5.98246 2.40288C5.75031 2.43384 5.63423 2.44931 5.53471 2.47312C4.7084 2.67078 4.09716 3.36893 4.01044 4.21411C4 4.31591 4 4.43301 4 4.66721M8 10.6672L10.6667 8.00054L8 5.33388M10.6667 8.00054H2" stroke="black" stroke-width="1.5" stroke-linecap="round" stroke-linejoin="round"/>
</svg>
