<svg width="24" height="24" viewBox="0 0 24 24" fill="none" xmlns="http://www.w3.org/2000/svg">
<path d="M19.5789 6.6879L11.5263 11M11.5263 11L3.47365 6.6879M11.5263 11L11.5263 19.6749M13.4211 19.1168L12.2625 19.7373C11.9938 19.8811 11.8594 19.9531 11.7172 19.9813C11.5913 20.0062 11.4614 20.0062 11.3355 19.9813C11.1932 19.9531 11.0589 19.8811 10.7902 19.7373L3.77966 15.9832C3.49591 15.8313 3.35402 15.7553 3.25071 15.6472C3.15931 15.5516 3.09014 15.4383 3.04783 15.3149C3 15.1754 3 15.0189 3 14.7061V7.29395C3 6.98107 3 6.82463 3.04783 6.6851C3.09014 6.56166 3.15931 6.44836 3.25071 6.35276C3.35402 6.2447 3.4959 6.16873 3.77966 6.01678L10.7902 2.26273C11.0589 2.11886 11.1932 2.04692 11.3355 2.01872C11.4614 1.99376 11.5913 1.99376 11.7172 2.01872C11.8594 2.04692 11.9938 2.11886 12.2625 2.26273L19.273 6.01678C19.5567 6.16873 19.6986 6.2447 19.8019 6.35276C19.8933 6.44836 19.9625 6.56166 20.0048 6.6851C20.0526 6.82462 20.0526 6.98107 20.0526 7.29395L20.0526 11.4566M7.26316 4.15141L15.7895 8.71714M18.1579 19.2183V13.7394M15.3158 16.4789H21" stroke="#0C111D" stroke-width="1.5" stroke-linecap="round" stroke-linejoin="round"/>
</svg>
