<svg width="16" height="16" viewBox="0 0 16 16" fill="none" xmlns="http://www.w3.org/2000/svg">
<path d="M10.9999 6.66667L8.66657 4.33333L10.9999 2M8.66657 4.33333H13.9999M6.81792 9.24205C6.01687 8.44099 5.38435 7.53523 4.92035 6.56882C4.88044 6.48569 4.86048 6.44413 4.84515 6.39154C4.79067 6.20463 4.8298 5.97513 4.94314 5.81684C4.97504 5.7723 5.01314 5.7342 5.08935 5.65799C5.32242 5.42492 5.43895 5.30838 5.51514 5.1912C5.80247 4.74927 5.80247 4.17955 5.51515 3.73762C5.43895 3.62044 5.32242 3.5039 5.08935 3.27083L4.95943 3.14092C4.60514 2.78662 4.42799 2.60947 4.23774 2.51324C3.85937 2.32186 3.41252 2.32186 3.03415 2.51324C2.84389 2.60947 2.66675 2.78662 2.31245 3.14092L2.20736 3.24601C1.85428 3.59909 1.67774 3.77563 1.54291 4.01565C1.39329 4.28199 1.28572 4.69565 1.28663 5.00113C1.28745 5.27643 1.34085 5.46458 1.44765 5.84087C2.02163 7.86314 3.10462 9.77138 4.6966 11.3634C6.28859 12.9554 8.19683 14.0383 10.2191 14.6123C10.5954 14.7191 10.7835 14.7725 11.0588 14.7733C11.3643 14.7743 11.778 14.6667 12.0443 14.5171C12.2843 14.3822 12.4609 14.2057 12.814 13.8526L12.9191 13.7475C13.2733 13.3932 13.4505 13.2161 13.5467 13.0258C13.7381 12.6474 13.7381 12.2006 13.5467 11.8222C13.4505 11.632 13.2733 11.4548 12.9191 11.1005L12.7891 10.9706C12.5561 10.7376 12.4395 10.621 12.3223 10.5448C11.8804 10.2575 11.3107 10.2575 10.8688 10.5448C10.7516 10.621 10.6351 10.7376 10.402 10.9706C10.3258 11.0468 10.2877 11.0849 10.2431 11.1168C10.0848 11.2302 9.85534 11.2693 9.66843 11.2148C9.61584 11.1995 9.57428 11.1795 9.49115 11.1396C8.52474 10.6756 7.61898 10.0431 6.81792 9.24205Z" stroke="white" stroke-linecap="round" stroke-linejoin="round"/>
</svg>
