<svg width="20" height="20" viewBox="0 0 20 20" fill="none" xmlns="http://www.w3.org/2000/svg">
<path d="M7.5 7.49996H7.50834M12.5 12.5H12.5083M13.3333 6.66663L6.66667 13.3333M7.66825 17.1674C7.94138 17.1312 8.21728 17.2053 8.43486 17.3729L9.43755 18.1423C9.76901 18.3969 10.2301 18.3969 10.5606 18.1423L11.6013 17.3433C11.7957 17.1942 12.041 17.1285 12.2836 17.1609L13.5854 17.3322C13.9992 17.3868 14.3982 17.1562 14.5584 16.7701L15.0593 15.5591C15.1528 15.3322 15.3324 15.1526 15.5593 15.0591L16.7703 14.5582C17.1564 14.3989 17.3869 13.9989 17.3323 13.585L17.1675 12.3305C17.1314 12.0573 17.2054 11.7814 17.373 11.5638L18.1424 10.5611C18.397 10.2296 18.397 9.76848 18.1424 9.43794L17.3434 8.39723C17.1943 8.20279 17.1286 7.95742 17.161 7.71484L17.3323 6.41302C17.3869 5.99915 17.1564 5.60008 16.7703 5.4399L15.5593 4.93899C15.3324 4.84547 15.1528 4.66585 15.0593 4.439L14.5584 3.22793C14.3992 2.84182 13.9992 2.61128 13.5854 2.6659L12.2836 2.8372C12.041 2.87053 11.7957 2.80479 11.6022 2.65664L10.5615 1.85759C10.2301 1.60297 9.76901 1.60297 9.43848 1.85759L8.39782 2.65664C8.2034 2.80479 7.95805 2.87053 7.71547 2.83905L6.41373 2.66776C5.99988 2.61313 5.60083 2.84368 5.44066 3.22978L4.9407 4.44085C4.84627 4.66677 4.66665 4.8464 4.44075 4.94084L3.22974 5.44083C2.84366 5.60101 2.61312 6.00007 2.66775 6.41395L2.83903 7.71576C2.87051 7.95835 2.80477 8.20371 2.65664 8.39723L1.85763 9.43794C1.60302 9.76941 1.60302 10.2305 1.85763 10.5611L2.65664 11.6018C2.8057 11.7962 2.87143 12.0416 2.83903 12.2842L2.66775 13.586C2.61312 13.9998 2.84366 14.3989 3.22974 14.5591L4.44075 15.06C4.66758 15.1535 4.84719 15.3331 4.9407 15.56L5.44159 16.7711C5.60083 17.1572 6.0008 17.3877 6.41466 17.3331L7.66825 17.1674ZM7.91667 7.49996C7.91667 7.73008 7.73012 7.91663 7.5 7.91663C7.26989 7.91663 7.08334 7.73008 7.08334 7.49996C7.08334 7.26984 7.26989 7.08329 7.5 7.08329C7.73012 7.08329 7.91667 7.26984 7.91667 7.49996ZM12.9167 12.5C12.9167 12.7301 12.7301 12.9166 12.5 12.9166C12.2699 12.9166 12.0833 12.7301 12.0833 12.5C12.0833 12.2698 12.2699 12.0833 12.5 12.0833C12.7301 12.0833 12.9167 12.2698 12.9167 12.5Z" stroke="#FCE40D" stroke-linecap="round" stroke-linejoin="round"/>
</svg>
